<svg width="32" height="32" viewBox="0 0 32 32" xmlns="http://www.w3.org/2000/svg">
  <!-- Soft background -->
  <rect width="32" height="32" fill="#ffffff" rx="7"/>
  
  <!-- Fluid, liquid-like T -->
  <path d="M7 8 Q5 6 8 6 L24 6 Q27 6 27 8 L27 10 Q27 12 24 12 L20 12 Q19 12 19 13 L19 22 Q19 25 16 26 Q13 25 13 22 L13 13 Q13 12 12 12 L8 12 Q5 12 5 10 L5 8 Q5 6 7 8 Z" fill="url(#liquidGrad)"/>
  
  <!-- Liquid gradient -->
  <defs>
    <radialGradient id="liquidGrad" cx="50%" cy="30%">
      <stop offset="0%" stop-color="#2196f3"/>
      <stop offset="70%" stop-color="#1976d2"/>
      <stop offset="100%" stop-color="#1565c0"/>
    </radialGradient>
  </defs>
  
  <!-- Dripping effect -->
  <circle cx="16" cy="27" r="2" fill="#1976d2" opacity="0.8"/>
  <ellipse cx="16" cy="25" rx="1" ry="2" fill="#1976d2" opacity="0.8"/>
  
  <!-- Splashes -->
  <circle cx="11" cy="28" r="1" fill="#42a5f5" opacity="0.6"/>
  <circle cx="21" cy="28" r="0.8" fill="#42a5f5" opacity="0.6"/>
  <circle cx="8" cy="26" r="0.6" fill="#64b5f6" opacity="0.5"/>
  <circle cx="24" cy="26" r="0.6" fill="#64b5f6" opacity="0.5"/>
  
  <!-- Artistic top flourish -->
  <path d="M16 4 Q14 2 16 2 Q18 2 16 4 Q14 6 16 6 Q18 6 16 4 Z" fill="#90caf9" opacity="0.6"/>
  
  <!-- Side waves -->
  <path d="M2 16 Q6 14 10 16 Q14 18 18 16" stroke="#2196f3" stroke-width="0.8" opacity="0.3" fill="none"/>
  <path d="M30 16 Q26 14 22 16 Q18 18 14 16" stroke="#2196f3" stroke-width="0.8" opacity="0.3" fill="none"/>
</svg>